<svg width="246" height="40" viewBox="0 0 246 40" fill="none" xmlns="http://www.w3.org/2000/svg">
<path d="M7.992 5.73599V32.76H20.952L20.136 39H0.119995V5.73599H7.992Z" fill="#141414"/>
<path d="M45.3862 39H38.8102L38.4742 35.784C36.6182 38.472 34.0422 39.816 30.7462 39.816C28.4102 39.816 26.6342 39.112 25.4182 37.704C24.2342 36.296 23.6422 34.328 23.6422 31.8V13.512H31.2262V30.84C31.2262 32.088 31.4182 32.968 31.8022 33.48C32.2182 33.96 32.8422 34.2 33.6742 34.2C35.2742 34.2 36.6502 33.208 37.8022 31.224V13.512H45.3862V39Z" fill="#141414"/>
<path d="M62.391 12.696C64.151 12.696 65.735 12.952 67.143 13.464C68.551 13.976 69.879 14.76 71.127 15.816L67.863 20.328C66.263 19.112 64.647 18.504 63.015 18.504C61.319 18.504 60.039 19.128 59.175 20.376C58.311 21.624 57.879 23.64 57.879 26.424C57.879 29.112 58.311 31.016 59.175 32.136C60.039 33.256 61.287 33.816 62.919 33.816C63.783 33.816 64.567 33.688 65.271 33.432C65.975 33.144 66.823 32.696 67.815 32.088L71.127 36.792C68.599 38.808 65.735 39.816 62.535 39.816C59.943 39.816 57.703 39.272 55.815 38.184C53.927 37.064 52.471 35.512 51.447 33.528C50.423 31.512 49.911 29.16 49.911 26.472C49.911 23.784 50.423 21.4 51.447 19.32C52.471 17.24 53.927 15.624 55.815 14.472C57.703 13.288 59.895 12.696 62.391 12.696Z" fill="#141414"/>
<path d="M94.107 31.608C94.107 32.568 94.235 33.272 94.491 33.72C94.779 34.168 95.227 34.504 95.835 34.728L94.251 39.672C92.683 39.544 91.403 39.208 90.411 38.664C89.419 38.088 88.651 37.192 88.107 35.976C86.443 38.536 83.883 39.816 80.427 39.816C77.899 39.816 75.883 39.08 74.379 37.608C72.875 36.136 72.123 34.216 72.123 31.848C72.123 29.064 73.147 26.936 75.195 25.464C77.243 23.992 80.203 23.256 84.075 23.256H86.667V22.152C86.667 20.648 86.347 19.624 85.707 19.08C85.067 18.504 83.947 18.216 82.347 18.216C81.515 18.216 80.507 18.344 79.323 18.6C78.139 18.824 76.923 19.144 75.675 19.56L73.947 14.568C75.547 13.96 77.179 13.496 78.843 13.176C80.539 12.856 82.107 12.696 83.547 12.696C87.195 12.696 89.867 13.448 91.563 14.952C93.259 16.456 94.107 18.712 94.107 21.72V31.608ZM82.635 34.392C84.363 34.392 85.707 33.576 86.667 31.944V27.432H84.795C83.067 27.432 81.771 27.736 80.907 28.344C80.075 28.952 79.659 29.896 79.659 31.176C79.659 32.2 79.915 33 80.427 33.576C80.971 34.12 81.707 34.392 82.635 34.392Z" fill="#141414"/>
<path d="M108.655 12.696C110.479 12.696 112.191 12.968 113.791 13.512C115.391 14.056 116.799 14.824 118.015 15.816L115.231 20.088C113.151 18.776 111.055 18.12 108.943 18.12C107.951 18.12 107.183 18.296 106.639 18.648C106.127 18.968 105.871 19.432 105.871 20.04C105.871 20.52 105.983 20.92 106.207 21.24C106.463 21.528 106.959 21.832 107.695 22.152C108.431 22.472 109.567 22.856 111.103 23.304C113.759 24.072 115.727 25.08 117.007 26.328C118.319 27.544 118.975 29.24 118.975 31.416C118.975 33.144 118.479 34.648 117.487 35.928C116.495 37.176 115.135 38.136 113.407 38.808C111.679 39.48 109.759 39.816 107.647 39.816C105.503 39.816 103.503 39.48 101.647 38.808C99.8231 38.136 98.2711 37.208 96.9911 36.024L100.687 31.896C102.831 33.56 105.087 34.392 107.455 34.392C108.607 34.392 109.503 34.184 110.143 33.768C110.815 33.352 111.151 32.76 111.151 31.992C111.151 31.384 111.023 30.904 110.767 30.552C110.511 30.2 110.015 29.88 109.279 29.592C108.543 29.272 107.375 28.888 105.775 28.44C103.247 27.704 101.359 26.68 100.111 25.368C98.8631 24.056 98.2391 22.424 98.2391 20.472C98.2391 19 98.6551 17.688 99.4871 16.536C100.351 15.352 101.567 14.424 103.135 13.752C104.735 13.048 106.575 12.696 108.655 12.696Z" fill="#141414"/>
<path d="M145.169 5.73599C149.553 5.73599 152.961 6.64799 155.393 8.47199C157.825 10.296 159.041 13 159.041 16.584C159.041 20.328 157.841 23.16 155.441 25.08C153.073 26.968 149.889 27.912 145.889 27.912H142.289V39H134.417V5.73599H145.169ZM145.217 22.248C147.073 22.248 148.481 21.816 149.441 20.952C150.433 20.056 150.929 18.6 150.929 16.584C150.929 13.096 148.977 11.352 145.073 11.352H142.289V22.248H145.217Z" fill="#141414"/>
<path d="M180.826 31.608C180.826 32.568 180.954 33.272 181.21 33.72C181.498 34.168 181.946 34.504 182.554 34.728L180.97 39.672C179.402 39.544 178.122 39.208 177.13 38.664C176.138 38.088 175.37 37.192 174.826 35.976C173.162 38.536 170.602 39.816 167.146 39.816C164.618 39.816 162.602 39.08 161.098 37.608C159.594 36.136 158.842 34.216 158.842 31.848C158.842 29.064 159.866 26.936 161.914 25.464C163.962 23.992 166.922 23.256 170.794 23.256H173.386V22.152C173.386 20.648 173.066 19.624 172.426 19.08C171.786 18.504 170.666 18.216 169.066 18.216C168.234 18.216 167.226 18.344 166.042 18.6C164.858 18.824 163.642 19.144 162.394 19.56L160.666 14.568C162.266 13.96 163.898 13.496 165.562 13.176C167.258 12.856 168.826 12.696 170.266 12.696C173.914 12.696 176.586 13.448 178.282 14.952C179.978 16.456 180.826 18.712 180.826 21.72V31.608ZM169.354 34.392C171.082 34.392 172.426 33.576 173.386 31.944V27.432H171.514C169.786 27.432 168.49 27.736 167.626 28.344C166.794 28.952 166.378 29.896 166.378 31.176C166.378 32.2 166.634 33 167.146 33.576C167.69 34.12 168.426 34.392 169.354 34.392Z" fill="#141414"/>
<path d="M194.451 13.512V39H186.867V13.512H194.451ZM190.611 0.071991C191.923 0.071991 192.995 0.487991 193.827 1.31999C194.691 2.11999 195.123 3.14399 195.123 4.39199C195.123 5.63999 194.691 6.67999 193.827 7.51199C192.995 8.31199 191.923 8.71199 190.611 8.71199C189.299 8.71199 188.227 8.31199 187.395 7.51199C186.563 6.67999 186.147 5.63999 186.147 4.39199C186.147 3.14399 186.563 2.11999 187.395 1.31999C188.227 0.487991 189.299 0.071991 190.611 0.071991Z" fill="#141414"/>
<path d="M222.35 13.512L214.333 39H205.357L197.15 13.512H205.406L209.917 33.24L214.622 13.512H222.35Z" fill="#141414"/>
<path d="M244.201 31.608C244.201 32.568 244.329 33.272 244.585 33.72C244.873 34.168 245.321 34.504 245.929 34.728L244.345 39.672C242.777 39.544 241.497 39.208 240.505 38.664C239.513 38.088 238.745 37.192 238.201 35.976C236.537 38.536 233.977 39.816 230.521 39.816C227.993 39.816 225.977 39.08 224.473 37.608C222.969 36.136 222.217 34.216 222.217 31.848C222.217 29.064 223.241 26.936 225.289 25.464C227.337 23.992 230.297 23.256 234.169 23.256H236.761V22.152C236.761 20.648 236.441 19.624 235.801 19.08C235.161 18.504 234.041 18.216 232.441 18.216C231.609 18.216 230.601 18.344 229.417 18.6C228.233 18.824 227.017 19.144 225.769 19.56L224.041 14.568C225.641 13.96 227.273 13.496 228.937 13.176C230.633 12.856 232.201 12.696 233.641 12.696C237.289 12.696 239.961 13.448 241.657 14.952C243.353 16.456 244.201 18.712 244.201 21.72V31.608ZM232.729 34.392C234.457 34.392 235.801 33.576 236.761 31.944V27.432H234.889C233.161 27.432 231.865 27.736 231.001 28.344C230.169 28.952 229.753 29.896 229.753 31.176C229.753 32.2 230.009 33 230.521 33.576C231.065 34.12 231.801 34.392 232.729 34.392Z" fill="#141414"/>
</svg>
