<svg width="482" height="376" viewBox="0 0 482 376" fill="none" xmlns="http://www.w3.org/2000/svg">
<rect x="58.5536" y="195.963" width="247.897" height="103.867" rx="4" fill="url(#paint0_linear_205_603)"/>
<rect x="62.7083" y="202.888" width="23.5433" height="12.4641" fill="#451F6D"/>
<rect x="278.753" y="218.814" width="23.5433" height="12.4641" fill="#451F6D"/>
<rect x="284.984" y="234.74" width="18.0037" height="12.4641" fill="#451F6D"/>
<rect x="289.139" y="247.204" width="13.849" height="15.9263" fill="#451F6D"/>
<rect x="89.7139" y="202.888" width="13.1565" height="12.4641" fill="#451F6D"/>
<rect x="62.7083" y="218.814" width="13.1565" height="12.4641" fill="#451F6D"/>
<rect x="62.7083" y="234.74" width="19.3886" height="12.4641" fill="#451F6D"/>
<rect x="62.7083" y="250.667" width="19.3886" height="12.4641" fill="#451F6D"/>
<rect x="62.7083" y="266.593" width="19.3886" height="12.4641" fill="#451F6D"/>
<rect x="62.7083" y="282.519" width="13.1565" height="12.4641" fill="#451F6D"/>
<rect x="80.0195" y="282.519" width="13.1565" height="12.4641" fill="#451F6D"/>
<rect x="106.333" y="202.888" width="13.1565" height="12.4641" fill="#451F6D"/>
<rect x="79.3271" y="218.814" width="13.1565" height="12.4641" fill="#451F6D"/>
<rect x="85.5591" y="234.74" width="13.1565" height="12.4641" fill="#451F6D"/>
<rect x="89.0214" y="250.667" width="13.1565" height="12.4641" fill="#451F6D"/>
<rect x="86.2516" y="266.593" width="13.1565" height="12.4641" fill="#451F6D"/>
<rect x="131.953" y="282.519" width="96.9429" height="12.4641" fill="#451F6D"/>
<rect x="122.951" y="202.888" width="13.1565" height="12.4641" fill="#451F6D"/>
<rect x="95.9459" y="218.814" width="13.1565" height="12.4641" fill="#451F6D"/>
<rect x="102.178" y="234.74" width="13.1565" height="12.4641" fill="#451F6D"/>
<rect x="105.64" y="250.667" width="13.1565" height="12.4641" fill="#451F6D"/>
<rect x="103.563" y="266.593" width="13.1565" height="12.4641" fill="#451F6D"/>
<rect x="139.57" y="202.888" width="13.1565" height="12.4641" fill="#451F6D"/>
<rect x="112.565" y="218.814" width="13.1565" height="12.4641" fill="#451F6D"/>
<rect x="118.797" y="234.74" width="13.1565" height="12.4641" fill="#451F6D"/>
<rect x="122.259" y="250.667" width="13.1565" height="12.4641" fill="#451F6D"/>
<rect x="120.874" y="266.593" width="13.1565" height="12.4641" fill="#451F6D"/>
<rect x="156.189" y="202.888" width="13.1565" height="12.4641" fill="#451F6D"/>
<rect x="129.183" y="218.814" width="13.1565" height="12.4641" fill="#451F6D"/>
<rect x="135.415" y="234.74" width="13.1565" height="12.4641" fill="#451F6D"/>
<rect x="138.878" y="250.667" width="13.1565" height="12.4641" fill="#451F6D"/>
<rect x="138.185" y="266.593" width="13.1565" height="12.4641" fill="#451F6D"/>
<rect x="172.808" y="202.888" width="13.1565" height="12.4641" fill="#451F6D"/>
<rect x="145.802" y="218.814" width="13.1565" height="12.4641" fill="#451F6D"/>
<rect x="152.034" y="234.74" width="13.1565" height="12.4641" fill="#451F6D"/>
<rect x="155.497" y="250.667" width="13.1565" height="12.4641" fill="#451F6D"/>
<rect x="155.497" y="266.593" width="13.1565" height="12.4641" fill="#451F6D"/>
<rect x="189.427" y="202.888" width="13.1565" height="12.4641" fill="#451F6D"/>
<rect x="162.421" y="218.814" width="13.1565" height="12.4641" fill="#451F6D"/>
<rect x="168.653" y="234.74" width="13.1565" height="12.4641" fill="#451F6D"/>
<rect x="172.115" y="250.667" width="13.1565" height="12.4641" fill="#451F6D"/>
<rect x="172.808" y="266.593" width="13.1565" height="12.4641" fill="#451F6D"/>
<rect x="206.045" y="202.888" width="13.1565" height="12.4641" fill="#451F6D"/>
<rect x="179.04" y="218.814" width="13.1565" height="12.4641" fill="#451F6D"/>
<rect x="185.272" y="234.74" width="13.1565" height="12.4641" fill="#451F6D"/>
<rect x="188.734" y="250.667" width="13.1565" height="12.4641" fill="#451F6D"/>
<rect x="190.119" y="266.593" width="13.1565" height="12.4641" fill="#451F6D"/>
<rect x="222.664" y="202.888" width="13.1565" height="12.4641" fill="#451F6D"/>
<rect x="195.659" y="218.814" width="13.1565" height="12.4641" fill="#451F6D"/>
<rect x="201.891" y="234.74" width="13.1565" height="12.4641" fill="#451F6D"/>
<rect x="205.353" y="250.667" width="13.1565" height="12.4641" fill="#451F6D"/>
<rect x="207.43" y="266.593" width="13.1565" height="12.4641" fill="#451F6D"/>
<rect x="239.283" y="202.888" width="13.1565" height="12.4641" fill="#451F6D"/>
<rect x="212.277" y="218.814" width="13.1565" height="12.4641" fill="#451F6D"/>
<rect x="218.509" y="234.74" width="13.1565" height="12.4641" fill="#451F6D"/>
<rect x="221.972" y="250.667" width="13.1565" height="12.4641" fill="#451F6D"/>
<rect x="224.741" y="266.593" width="13.1565" height="12.4641" fill="#451F6D"/>
<rect x="255.902" y="202.888" width="13.1565" height="12.4641" fill="#451F6D"/>
<rect x="228.896" y="218.814" width="13.1565" height="12.4641" fill="#451F6D"/>
<rect x="235.128" y="234.74" width="13.1565" height="12.4641" fill="#451F6D"/>
<rect x="238.59" y="250.667" width="13.1565" height="12.4641" fill="#451F6D"/>
<rect x="242.053" y="266.593" width="13.1565" height="12.4641" fill="#451F6D"/>
<rect x="272.52" y="202.888" width="13.1565" height="12.4641" fill="#451F6D"/>
<rect x="245.515" y="218.814" width="13.1565" height="12.4641" fill="#451F6D"/>
<rect x="251.747" y="234.74" width="13.1565" height="12.4641" fill="#451F6D"/>
<rect x="255.209" y="250.667" width="13.1565" height="12.4641" fill="#451F6D"/>
<rect x="259.364" y="266.593" width="13.1565" height="12.4641" fill="#451F6D"/>
<rect x="289.139" y="202.888" width="13.1565" height="12.4641" fill="#451F6D"/>
<rect x="289.139" y="282.519" width="13.1565" height="12.4641" fill="#451F6D"/>
<rect x="272.52" y="282.519" width="13.1565" height="12.4641" fill="#451F6D"/>
<rect x="262.134" y="218.814" width="13.1565" height="12.4641" fill="#451F6D"/>
<rect x="268.366" y="234.74" width="13.1565" height="12.4641" fill="#451F6D"/>
<rect x="271.828" y="250.667" width="13.1565" height="12.4641" fill="#451F6D"/>
<rect x="276.675" y="266.593" width="26.3131" height="12.4641" fill="#451F6D"/>
<rect x="317.337" y="181.922" width="163.803" height="140.952" rx="11.5" stroke="url(#paint1_linear_205_603)"/>
<path d="M373.105 246.166C370.889 219.853 389.724 212.813 399.418 212.582C408.42 212.582 425.385 218.122 425.039 246.166C424.693 274.21 410.844 293.252 398.38 291.867C385.916 290.482 375.875 279.057 373.105 246.166Z" fill="url(#paint2_linear_205_603)"/>
<path opacity="0.3" d="M405.471 213.386C411.126 223.427 420.635 252.121 412.049 285.635C431.784 260.707 429.36 218.122 405.471 213.386Z" fill="#16044A"/>
<path d="M373.272 246.858C378.048 244.246 388.87 240.959 401.842 241.583M425.039 246.858C416.817 243.433 408.93 241.924 401.842 241.583M401.842 241.583C401.265 233.185 400.07 215.075 399.239 212.582" stroke="url(#paint3_linear_205_603)"/>
<path d="M403.06 225.822C403.206 227.274 403.005 228.599 402.585 229.56C402.158 230.538 401.56 231.038 400.964 231.099C400.367 231.159 399.682 230.789 399.067 229.916C398.464 229.057 398.001 227.8 397.854 226.348C397.707 224.895 397.909 223.571 398.329 222.609C398.756 221.631 399.354 221.131 399.95 221.071C400.547 221.01 401.232 221.381 401.846 222.254C402.45 223.112 402.913 224.369 403.06 225.822Z" fill="#6802A7" stroke="url(#paint4_linear_205_603)"/>
<path d="M413.267 246.858C413.844 251.128 414.652 261.746 413.96 263.823M404.265 285.289C406.686 283.103 410.837 276.719 412.229 270.055M413.267 267.978V266.593" stroke="url(#paint5_linear_205_603)"/>
<path d="M119.835 376L110.141 372.538C104.255 357.65 153.073 280.096 153.765 272.825C154.458 265.554 159.305 265.208 160.344 267.285C161.382 269.363 157.574 319.565 143.032 331.337C131.399 340.754 122.721 365.036 119.835 376Z" fill="#16044A" fill-opacity="0.51"/>
<path d="M81.0581 333.76C77.7344 334.591 73.4412 346.802 71.7101 352.803V369.768L108.41 375.307C109.679 367.921 115.542 349.825 128.837 336.53C142.132 323.235 147.764 309.756 148.918 304.678L154.112 287.713V272.479C154.573 272.363 155.496 270.54 155.496 264.169C150.649 261.746 141.994 267.978 142.34 273.517C142.617 277.949 138.762 288.059 136.8 292.56C136.108 286.212 135 269.363 136.108 252.744C137.493 231.97 139.916 229.201 134.031 226.431C128.145 223.661 123.99 246.512 122.951 247.897C122.12 249.005 120.759 267.516 120.182 276.633L119.143 273.517V246.512C119.143 241.319 122.605 228.854 123.644 226.431C124.682 224.007 120.528 219.16 116.719 221.237C113.673 222.899 107.602 239.703 104.948 247.897C104.832 253.783 104.186 266.039 102.524 267.978C100.101 267.285 98.7156 260.361 98.3694 253.436C98.0232 246.512 103.563 242.703 104.948 237.856C104.117 234.256 100.447 234.509 98.7156 235.086C95.9458 238.549 90.1985 245.473 89.3675 245.473C88.3289 245.473 85.2128 244.781 81.0581 254.129C75.2416 260.776 78.6346 279.98 81.0581 288.751V333.76Z" fill="#D19FAD"/>
<path d="M84.5204 287.02C84.7973 287.851 83.7125 288.29 83.1355 288.405C82.443 288.638 80.7119 286.328 81.4043 284.943C81.9583 283.835 83.2509 284.25 83.8279 284.597C83.9433 285.058 84.2434 286.189 84.5204 287.02Z" fill="#C18A99" stroke="#C18A99"/>
<path d="M92.8298 280.442C92.7144 279.057 93.1068 276.495 95.5996 277.326C98.7156 278.365 93.8685 282.866 92.8298 280.442Z" fill="#C18A99"/>
<path d="M110.487 279.749C111.064 278.365 111.664 275.456 109.449 274.902C106.679 274.21 105.64 281.134 110.487 279.749Z" fill="#C18A99"/>
<path d="M124.682 277.326C128.006 277.049 126.991 280.211 126.067 281.827L121.22 284.597C120.989 282.288 121.359 277.603 124.682 277.326Z" fill="#C18A99"/>
<path d="M135.762 294.637L131.607 303.293L132.299 291.175C132.53 281.365 132.23 261.123 129.183 258.63C125.375 255.514 123.644 257.591 121.566 258.63C120.874 255.86 125.375 238.202 129.53 229.893C132.853 223.246 136.223 227.585 137.493 230.586L136.454 244.781L135.415 262.092L135.762 280.788L136.454 290.482L137.147 293.252C138.301 289.79 140.886 281.965 141.994 278.365C143.379 273.864 141.647 278.018 142.686 271.786C143.725 265.554 154.804 262.784 155.15 264.516C155.427 265.9 154.342 270.401 153.765 272.479V287.713C153.765 287.597 153.419 287.366 152.034 287.366C141.647 284.597 139.916 302.6 139.57 298.792C139.293 295.745 136.916 294.753 135.762 294.637Z" fill="#C18A99"/>
<path d="M114.296 252.744C111.803 247.481 107.256 250.32 105.294 252.398L104.948 252.744V247.897C105.986 245.012 108.341 238.549 109.449 235.779C110.487 231.97 113.257 227.816 114.988 223.661C116.719 219.506 120.874 221.584 122.605 222.969C124.336 224.354 123.298 227.123 122.951 227.816C122.605 228.508 119.489 241.665 119.143 243.396C118.866 244.781 118.797 264.516 118.797 274.21L115.334 270.055C115.565 266.593 115.681 258.284 114.296 252.744Z" fill="#C18A99"/>
<path d="M84.8666 267.978C83.7587 266.316 80.0195 268.67 78.2883 270.055C77.2497 262.092 79.6732 258.284 81.7506 252.744C83.4125 248.312 87.7518 246.05 89.7137 245.473C91.6757 243.396 96.1535 238.549 98.3694 235.779C102.524 233.702 104.255 237.164 104.601 237.856C104.878 238.41 102.639 242.011 101.485 243.742C100.908 244.665 99.4773 247.274 98.3694 250.32C96.9845 254.129 99.408 261.746 99.7543 264.169C100.024 266.056 101.407 267.439 102.12 267.938C102.139 267.944 102.159 267.959 102.178 267.978C102.159 267.965 102.14 267.952 102.12 267.938C102.021 267.906 101.946 268.089 102.178 269.016C93.8684 270.748 95.5996 262.784 92.8298 259.668C90.6139 257.176 87.2902 258.63 85.9053 259.668C86.0207 263.131 85.9745 269.64 84.8666 267.978Z" fill="#C18A99"/>
<path d="M92.8298 280.442C92.7144 279.057 93.1068 276.495 95.5996 277.326C98.7156 278.365 93.8685 282.866 92.8298 280.442Z" stroke="#C18A99"/>
<path d="M110.487 279.749C111.064 278.365 111.664 275.456 109.449 274.902C106.679 274.21 105.64 281.134 110.487 279.749Z" stroke="#C18A99"/>
<path d="M124.682 277.326C128.006 277.049 126.991 280.211 126.067 281.827L121.22 284.597C120.989 282.288 121.359 277.603 124.682 277.326Z" stroke="#C18A99"/>
<path d="M135.762 294.637L131.607 303.293L132.299 291.175C132.53 281.365 132.23 261.123 129.183 258.63C125.375 255.514 123.644 257.591 121.566 258.63C120.874 255.86 125.375 238.202 129.53 229.893C132.853 223.246 136.223 227.585 137.493 230.586L136.454 244.781L135.415 262.092L135.762 280.788L136.454 290.482L137.147 293.252C138.301 289.79 140.886 281.965 141.994 278.365C143.379 273.864 141.647 278.018 142.686 271.786C143.725 265.554 154.804 262.784 155.15 264.516C155.427 265.9 154.342 270.401 153.765 272.479V287.713C153.765 287.597 153.419 287.366 152.034 287.366C141.647 284.597 139.916 302.6 139.57 298.792C139.293 295.745 136.916 294.753 135.762 294.637Z" stroke="#C18A99"/>
<path d="M114.296 252.744C111.803 247.481 107.256 250.32 105.294 252.398L104.948 252.744V247.897C105.986 245.012 108.341 238.549 109.449 235.779C110.487 231.97 113.257 227.816 114.988 223.661C116.719 219.506 120.874 221.584 122.605 222.969C124.336 224.354 123.298 227.123 122.951 227.816C122.605 228.508 119.489 241.665 119.143 243.396C118.866 244.781 118.797 264.516 118.797 274.21L115.334 270.055C115.565 266.593 115.681 258.284 114.296 252.744Z" stroke="#C18A99"/>
<path d="M84.8666 267.978C83.7587 266.316 80.0195 268.67 78.2883 270.055C77.2497 262.092 79.6732 258.284 81.7506 252.744C83.4125 248.312 87.7518 246.05 89.7137 245.473C91.6757 243.396 96.1535 238.549 98.3694 235.779C102.524 233.702 104.255 237.164 104.601 237.856C104.878 238.41 102.639 242.011 101.485 243.742C100.908 244.665 99.4773 247.274 98.3694 250.32C96.9845 254.129 99.408 261.746 99.7543 264.169C100.024 266.056 101.407 267.439 102.12 267.938C102.139 267.944 102.159 267.959 102.178 267.978C102.159 267.965 102.14 267.952 102.12 267.938C102.021 267.906 101.946 268.089 102.178 269.016C93.8684 270.748 95.5996 262.784 92.8298 259.668C90.6139 257.176 87.2902 258.63 85.9053 259.668C86.0207 263.131 85.9745 269.64 84.8666 267.978Z" stroke="#C18A99"/>
<path d="M81.0581 333.76C77.7344 334.591 73.4412 346.802 71.7101 352.803V369.768L108.41 375.307C109.679 367.921 115.542 349.825 128.837 336.53C142.132 323.235 147.764 309.756 148.918 304.678L154.112 287.713V272.479C154.573 272.363 155.496 270.54 155.496 264.169C150.649 261.746 141.994 267.978 142.34 273.517C142.617 277.949 138.762 288.059 136.8 292.56C136.108 286.212 135 269.363 136.108 252.744C137.493 231.97 139.916 229.201 134.031 226.431C128.145 223.661 123.99 246.512 122.951 247.897C122.12 249.005 120.759 267.516 120.182 276.633L119.143 273.517V246.512C119.143 241.319 122.605 228.854 123.644 226.431C124.682 224.007 120.528 219.16 116.719 221.237C113.673 222.899 107.602 239.703 104.948 247.897C104.832 253.783 104.186 266.039 102.524 267.978C100.101 267.285 98.7156 260.361 98.3694 253.436C98.0232 246.512 103.563 242.703 104.948 237.856C104.117 234.256 100.447 234.509 98.7156 235.086C95.9458 238.549 90.1985 245.473 89.3675 245.473C88.3289 245.473 85.2128 244.781 81.0581 254.129C75.2416 260.776 78.6346 279.98 81.0581 288.751V333.76Z" stroke="url(#paint6_linear_205_603)"/>
<path d="M78.2883 270.748L81.4043 267.978M85.9052 284.25C86.9439 281.942 88.5365 275.456 86.5977 267.978C85.8877 265.239 85.7131 262.51 85.8394 260.015M87.9826 250.32C87.1779 252.076 86.058 255.695 85.8394 260.015M85.8394 260.015C86.7846 258.976 89.3675 257.037 92.1373 257.591M92.8297 280.442C92.7143 282.288 92.8297 286.258 94.2146 287.366M82.443 288.751C82.7892 290.021 83.6201 292.698 84.1741 293.252M109.795 279.057C108.641 280.326 107.025 284.458 109.795 290.829M124.336 290.829C125.375 290.252 127.452 287.99 127.452 283.558M103.216 270.055C103.332 271.902 103.286 275.595 102.178 275.595M108.064 245.473C109.333 245.242 112.08 245.265 112.911 247.204M125.721 251.705C126.529 251.128 128.629 250.32 130.568 251.705M128.837 234.048C130.684 234.279 134.307 234.394 134.03 233.009M114.296 227.816C116.258 228.162 120.251 228.093 120.528 225.046" stroke="url(#paint7_linear_205_603)"/>
<path d="M97.6769 238.202C98.831 238.433 101.208 238.549 101.485 237.164M153.073 265.554C150.534 267.17 146.495 270.886 150.649 272.825M137.493 295.33C138.07 296.599 138.878 300.038 137.493 303.639" stroke="url(#paint8_linear_205_603)"/>
<path d="M246.554 372.191L235.474 337.569C225.434 330.76 205.076 314.718 203.968 305.024C203.085 297.301 200.826 288.772 199.185 283.464C198.511 281.284 198.581 278.932 199.48 276.834C199.93 275.785 200.194 274.668 200.305 273.531C200.778 268.701 201.927 262.256 203.968 261.746C205.353 261.399 206.253 261.638 206.738 261.746C208.815 262.207 212.97 264.723 212.97 271.094C212.97 277.464 215.509 285.981 216.778 289.444C217.701 286.789 219.409 280.65 218.856 277.326C218.302 274.002 204.776 245.935 198.082 232.317C197.043 227.7 196.143 218.675 200.852 219.506C205.561 220.337 214.124 236.01 217.817 243.742L231.666 260.015L235.474 255.31L236.128 234.922C235.826 239.733 233.689 246.612 226.819 243.05C219.34 239.172 227.857 230.124 233.051 226.085C236.167 225.508 243.438 225.946 247.592 232.317H255.209L264.211 239.934H269.058C272.867 242.703 279.514 251.913 275.636 266.593V321.643L286.369 359.727L246.554 372.191Z" fill="#D19FAD"/>
<path d="M247.246 300.869C246.092 292.56 242.814 276.218 238.937 277.326C234.089 278.711 245.169 291.521 247.246 300.869Z" fill="#C18A99"/>
<path d="M255.902 300.869C254.794 296.714 254.055 282.981 253.824 276.633C257.688 285.201 260.818 282.683 263.056 278.018C265.431 273.069 266.803 265.702 266.981 266.593C267.001 266.694 267.021 266.806 267.041 266.931C267.051 266.591 267.052 266.247 267.043 265.901L263.172 276.633C263.057 264.977 262.826 241.526 262.826 240.972C262.364 240.049 260.818 238.549 258.325 239.934C255.832 241.319 253.132 262.207 252.093 272.479L249.323 257.937L245.861 234.394C241.245 232.547 232.012 228.647 232.012 227.816C232.012 226.777 237.805 223.315 247.592 232.317C253.409 232.317 255.094 232.548 255.209 232.663L264.211 240.28C271.412 238.064 274.713 246.974 275.983 251.359L275.636 251.705C272.52 253.552 266.427 258.768 266.981 264.862C267.013 265.211 267.033 265.557 267.043 265.901C267.052 266.247 267.051 266.591 267.041 266.931C267.356 268.939 267.492 274.001 264.557 281.827C270.789 281.481 271.828 273.171 272.52 272.479C273.074 271.925 274.598 263.246 275.29 258.976C275.175 257.822 275.082 254.96 275.636 252.744C277.021 254.129 275.983 262.554 275.29 266.593V320.95L271.135 323.374C270.674 315.872 269.197 300.315 266.981 298.099C264.211 295.33 263.172 300.177 262.826 300.869C262.549 301.423 259.71 293.714 258.325 289.79C257.979 295.214 257.01 305.024 255.902 300.869Z" fill="#C18A99"/>
<path d="M231.32 233.355L227.165 242.703C232.012 246.512 235.821 239.241 234.782 239.587C233.951 239.864 232.128 235.548 231.32 233.355Z" fill="#C18A99"/>
<path d="M238.59 235.433L236.513 235.087L235.474 255.168L238.59 253.09L243.091 247.551V246.512L238.937 248.589L238.59 235.433Z" fill="#C18A99"/>
<path d="M202.237 224.354V220.199C207.499 224.077 214.124 237.048 216.778 243.05L231.666 260.361L233.051 258.63L235.474 274.21L215.393 246.512L211.239 243.742L209.854 234.74L204.314 224.354H202.237Z" fill="#C18A99"/>
<path d="M211.931 293.598L216.432 297.753H217.124C217.24 295.33 217.263 290.275 216.432 289.444C215.393 288.405 212.277 275.595 212.624 271.786C212.97 267.978 210.546 264.169 208.815 262.784C207.43 261.677 204.545 262.092 203.275 262.438C202.929 264.054 202.514 267.355 203.622 267.632C212.624 270.055 209.854 275.595 208.815 280.442C211.308 282.935 211.931 290.252 211.931 293.598Z" fill="#C18A99"/>
<path d="M208.815 272.825C208.815 273.379 203.506 273.287 200.852 273.171C200.852 272.825 200.506 272.479 200.852 270.055C208.123 270.055 208.815 272.133 208.815 272.825Z" fill="#C18A99"/>
<path d="M263.056 278.018C265.431 273.069 266.803 265.702 266.981 266.593C267.327 268.324 267.673 273.517 264.557 281.827C270.789 281.481 271.828 273.171 272.52 272.479C273.074 271.925 274.598 263.246 275.29 258.976C275.175 257.822 275.082 254.96 275.636 252.744C277.021 254.129 275.983 262.554 275.29 266.593V320.95L271.135 323.374C270.674 315.872 269.197 300.315 266.981 298.099C264.211 295.33 263.172 300.177 262.826 300.869C262.549 301.423 259.71 293.714 258.325 289.79C257.979 295.214 257.01 305.024 255.902 300.869C254.794 296.714 254.055 282.981 253.824 276.633C257.688 285.201 260.818 282.683 263.056 278.018ZM263.056 278.018C264.507 276.278 267.202 271.542 267.043 265.901M264.211 240.28L255.209 232.663C255.094 232.548 253.409 232.317 247.592 232.317C237.805 223.315 232.012 226.777 232.012 227.816C232.012 228.647 241.245 232.547 245.861 234.394L249.323 257.937L252.093 272.479C253.132 262.207 255.832 241.319 258.325 239.934C260.818 238.549 262.364 240.049 262.826 240.972C262.826 241.526 263.057 264.977 263.172 276.633L267.043 265.901M264.211 240.28L265.596 265.901H267.043M264.211 240.28C271.412 238.064 274.713 246.974 275.983 251.359L275.636 251.705C272.52 253.552 266.427 258.768 266.981 264.862C267.013 265.211 267.033 265.557 267.043 265.901M247.246 300.869C246.092 292.56 242.814 276.218 238.937 277.326C234.089 278.711 245.169 291.521 247.246 300.869ZM227.165 242.703L231.32 233.355C232.128 235.548 233.951 239.864 234.782 239.587C235.821 239.241 232.012 246.512 227.165 242.703ZM236.513 235.087L238.59 235.433L238.937 248.589L243.091 246.512V247.551L238.59 253.09L235.474 255.168L236.513 235.087ZM202.237 220.199V224.354H204.314L209.854 234.74L211.239 243.742L215.393 246.512L235.474 274.21L233.051 258.63L231.666 260.361L216.778 243.05C214.124 237.048 207.499 224.077 202.237 220.199ZM216.432 297.753L211.931 293.598C211.931 290.252 211.308 282.935 208.815 280.442C209.854 275.595 212.624 270.055 203.622 267.632C202.514 267.355 202.929 264.054 203.275 262.438C204.545 262.092 207.43 261.677 208.815 262.784C210.546 264.169 212.97 267.978 212.624 271.786C212.277 275.595 215.393 288.405 216.432 289.444C217.263 290.275 217.24 295.33 217.124 297.753H216.432ZM200.852 273.171C203.506 273.287 208.815 273.379 208.815 272.825C208.815 272.133 208.123 270.055 200.852 270.055C200.506 272.479 200.852 272.825 200.852 273.171Z" stroke="#C18A99"/>
<path d="M246.554 372.191L235.474 337.569C225.434 330.76 205.076 314.718 203.968 305.024C203.085 297.301 200.826 288.772 199.185 283.464C198.511 281.284 198.581 278.932 199.48 276.834V276.834C199.93 275.785 200.194 274.668 200.305 273.531C200.778 268.701 201.927 262.256 203.968 261.746C205.353 261.399 206.253 261.638 206.738 261.746C208.815 262.207 212.97 264.723 212.97 271.094C212.97 277.464 215.509 285.981 216.778 289.444C217.701 286.789 219.409 280.65 218.856 277.326C218.302 274.002 204.776 245.935 198.082 232.317C197.043 227.7 196.143 218.675 200.852 219.506C205.561 220.337 214.124 236.01 217.817 243.742L231.666 260.015L235.474 255.31M237.552 252.744L235.474 255.31M235.474 255.31L236.167 233.702C236.167 238.433 234.297 246.927 226.819 243.05C219.34 239.172 227.857 230.124 233.051 226.085C236.167 225.508 243.438 225.946 247.592 232.317C252.855 232.317 254.863 232.317 255.209 232.317L264.211 239.934H269.058C272.867 242.703 279.514 251.913 275.636 266.593C275.636 282.104 275.636 309.756 275.636 321.643L286.369 359.727L247.592 372.191" stroke="url(#paint9_linear_205_603)"/>
<path d="M250.708 235.087C251.401 238.895 252.786 246.927 252.786 248.589C252.786 250.667 251.747 261.053 255.209 261.746M265.596 242.357V264.169M265.596 264.169C265.711 264.746 266.219 265.97 267.327 266.247M265.596 264.169C266.519 262.669 268.366 259.392 268.366 258.284" stroke="url(#paint10_linear_205_603)"/>
<path d="M201.544 269.363H206.815C207.92 269.363 208.815 268.467 208.815 267.363V265.208M208.815 245.819C209.507 244.896 211.862 243.188 215.74 243.742M199.467 225.738C200.044 225.046 201.891 223.869 204.66 224.7M235.128 239.587C233.859 238.202 231.32 234.602 231.32 231.278M230.281 272.825L232.705 276.633M250.362 262.438C251.285 264.516 252.855 270.124 251.747 275.941M261.787 274.556C262.48 273.633 263.657 271.302 262.826 269.363M271.135 274.556V273.864C271.135 273.29 271.601 272.825 272.174 272.825V272.825" stroke="url(#paint11_linear_205_603)"/>
<path d="M257.979 239.587C259.248 239.356 261.926 239.31 262.48 240.972M272.867 251.359C273.674 251.244 275.429 251.359 275.983 252.744M214.701 292.213L217.124 289.097V296.714" stroke="url(#paint12_linear_205_603)"/>
<path d="M350.28 0.00812514C356.445 -0.27758 359.982 7.0426 361.5 10.733C244.05 10.852 8.36559 11.0792 1.08038 11.0792C3.60219 3.65084 10.5371 0.603335 13.6894 0.00812514C123.318 0.127169 344.116 0.29383 350.28 0.00812514Z" fill="url(#paint13_linear_205_603)"/>
<ellipse cx="178.001" cy="128.103" rx="46.0479" ry="34.6225" fill="url(#paint14_linear_205_603)"/>
<rect x="148.38" y="109.215" width="59.9355" height="32.2376" rx="11.5" fill="url(#paint15_linear_205_603)" stroke="url(#paint16_linear_205_603)"/>
<path d="M313.721 126.718H51.2829C44.6354 126.718 42.2811 123.718 41.9349 122.217C28.6629 88.7489 1.7728 20.7042 0.387904 16.2725C-0.996994 11.8409 1.65739 10.2713 3.1577 10.0405C120.759 9.9251 356.722 9.76353 359.769 10.0405C362.816 10.3175 362.885 14.7722 362.539 16.965C351.113 45.1246 327.432 103.937 324.108 113.908C320.784 123.879 315.799 126.603 313.721 126.718Z" fill="url(#paint17_linear_205_603)"/>
<path d="M316.491 117.024H45.0509L6.62 16.6188H354.23L316.491 117.024Z" fill="url(#paint18_linear_205_603)"/>
<path d="M278.924 112.869H86.7466C85.8804 112.869 85.1126 112.312 84.8447 111.488L56.6358 24.7771C56.2154 23.4847 57.1786 22.1583 58.5377 22.1583H305.141C306.483 22.1583 307.444 23.453 307.056 24.7372L280.838 111.448C280.583 112.292 279.805 112.869 278.924 112.869Z" fill="url(#paint19_linear_205_603)" stroke="url(#paint20_linear_205_603)"/>
<path d="M65.787 34.2762H298.542C299.208 34.2762 299.688 34.9144 299.503 35.5539L278.269 109.031C278.145 109.459 277.754 109.753 277.308 109.753H88.0324C87.5917 109.753 87.2029 109.465 87.0753 109.043L64.8299 35.566C64.6355 34.9239 65.1161 34.2762 65.787 34.2762Z" fill="url(#paint21_linear_205_603)"/>
<circle cx="72.7488" cy="28.7366" r="3.11602" fill="#FBEDFF"/>
<circle cx="81.7507" cy="28.7366" r="3.11602" fill="#FBEDFF"/>
<circle cx="90.7526" cy="28.7366" r="3.11602" fill="#FBEDFF"/>
<path d="M361.5 10.733C361.154 10.5022 360.254 10.0405 359.423 10.0405C358.592 10.0405 121.567 10.0405 3.15773 10.0405C2.58069 10.2713 1.35736 10.8022 1.08038 11.0792" stroke="url(#paint22_linear_205_603)"/>
<rect x="77.9422" y="42.2394" width="40.1621" height="2.7698" rx="1.3849" fill="#D23FB3"/>
<rect x="101.486" y="81.709" width="24.9282" height="2.7698" rx="1.3849" fill="#D23FB3"/>
<rect x="81.4045" y="49.1639" width="13.1565" height="2.7698" rx="1.3849" fill="#FBEDFF"/>
<rect x="91.0988" y="56.0884" width="30.4678" height="2.7698" rx="1.3849" fill="#DD8D98"/>
<rect x="97.3308" y="69.245" width="20.081" height="2.7698" rx="1.3849" fill="#DD8D98"/>
<rect x="98.0233" y="99.7126" width="20.081" height="2.7698" rx="1.3849" fill="#DD8D98"/>
<rect x="95.9459" y="63.0128" width="9.69429" height="2.7698" rx="1.3849" fill="#FBEDFF"/>
<rect x="101.486" y="87.941" width="22.1584" height="2.7698" rx="1.3849" fill="#FBEDFF"/>
<rect x="100.101" y="75.4769" width="9.69429" height="2.7698" rx="1.3849" fill="#FBEDFF"/>
<rect x="129.183" y="75.4769" width="9.69429" height="2.7698" rx="1.3849" fill="#FBEDFF"/>
<rect x="145.802" y="87.941" width="9.69429" height="2.7698" rx="1.3849" fill="#FBEDFF"/>
<rect x="111.18" y="63.0128" width="10.3867" height="2.7698" rx="1.3849" fill="#FBEDFF"/>
<rect x="113.257" y="75.4769" width="12.4641" height="2.7698" rx="1.3849" fill="#FBEDFF"/>
<rect x="127.106" y="63.0128" width="27.0055" height="2.7698" rx="1.3849" fill="#DD8D98"/>
<rect x="101.486" y="93.4807" width="16.6188" height="2.7698" rx="1.3849" fill="#FBEDFF"/>
<rect x="126.414" y="87.941" width="16.6188" height="2.7698" rx="1.3849" fill="#FBEDFF"/>
<rect x="123.644" y="42.2394" width="27.698" height="2.7698" rx="1.3849" fill="#FBEDFF"/>
<rect x="156.881" y="42.2394" width="30.4678" height="2.7698" rx="1.3849" fill="#FBEDFF"/>
<rect x="192.889" y="42.2394" width="55.3959" height="2.7698" rx="1.3849" fill="#DD8D98"/>
<path fill-rule="evenodd" clip-rule="evenodd" d="M39.8387 234.74H43.6291C48.0473 234.74 51.6291 238.322 51.6291 242.74V249.591C51.6291 254.009 48.0473 257.591 43.6291 257.591H25.0066C20.5883 257.591 17.0066 254.009 17.0066 249.591V242.74C17.0066 238.322 20.5883 234.74 25.0066 234.74H29.8825L41.9348 225.046L39.8387 234.74Z" fill="#451F6D"/>
<path d="M39.8387 234.74L39.35 234.635L39.2191 235.24H39.8387V234.74ZM29.8825 234.74V235.24H30.0586L30.1959 235.13L29.8825 234.74ZM41.9348 225.046L42.4235 225.152L42.722 223.771L41.6214 224.656L41.9348 225.046ZM39.8387 235.24H43.6291V234.24H39.8387V235.24ZM43.6291 235.24C47.7712 235.24 51.1291 238.598 51.1291 242.74H52.1291C52.1291 238.046 48.3235 234.24 43.6291 234.24V235.24ZM51.1291 242.74V249.591H52.1291V242.74H51.1291ZM51.1291 249.591C51.1291 253.733 47.7712 257.091 43.6291 257.091V258.091C48.3235 258.091 52.1291 254.286 52.1291 249.591H51.1291ZM43.6291 257.091H25.0066V258.091H43.6291V257.091ZM25.0066 257.091C20.8645 257.091 17.5066 253.733 17.5066 249.591H16.5066C16.5066 254.286 20.3122 258.091 25.0066 258.091V257.091ZM17.5066 249.591V242.74H16.5066V249.591H17.5066ZM17.5066 242.74C17.5066 238.598 20.8645 235.24 25.0066 235.24V234.24C20.3122 234.24 16.5066 238.046 16.5066 242.74H17.5066ZM25.0066 235.24H29.8825V234.24H25.0066V235.24ZM30.1959 235.13L42.2481 225.436L41.6214 224.656L29.5691 234.351L30.1959 235.13ZM41.4461 224.94L39.35 234.635L40.3274 234.846L42.4235 225.152L41.4461 224.94Z" fill="url(#paint23_linear_205_603)"/>
<path fill-rule="evenodd" clip-rule="evenodd" d="M184.333 315.064H189.043C193.462 315.064 197.043 318.646 197.043 323.064V329.915C197.043 334.334 193.462 337.915 189.043 337.915H170.421C166.003 337.915 162.421 334.334 162.421 329.915V323.064C162.421 318.646 166.003 315.064 170.421 315.064H174.293L183.541 305.024L184.333 315.064Z" fill="#451F6D"/>
<path d="M184.333 315.064L183.835 315.104L183.871 315.564H184.333V315.064ZM174.293 315.064V315.564H174.512L174.661 315.403L174.293 315.064ZM183.541 305.024L184.039 304.985L183.949 303.843L183.173 304.685L183.541 305.024ZM184.333 315.564H189.043V314.564H184.333V315.564ZM189.043 315.564C193.186 315.564 196.543 318.922 196.543 323.064H197.543C197.543 318.37 193.738 314.564 189.043 314.564V315.564ZM196.543 323.064V329.915H197.543V323.064H196.543ZM196.543 329.915C196.543 334.057 193.186 337.415 189.043 337.415V338.415C193.738 338.415 197.543 334.61 197.543 329.915H196.543ZM189.043 337.415H170.421V338.415H189.043V337.415ZM170.421 337.415C166.279 337.415 162.921 334.057 162.921 329.915H161.921C161.921 334.61 165.727 338.415 170.421 338.415V337.415ZM162.921 329.915V323.064H161.921V329.915H162.921ZM162.921 323.064C162.921 318.922 166.279 315.564 170.421 315.564V314.564C165.727 314.564 161.921 318.37 161.921 323.064H162.921ZM170.421 315.564H174.293V314.564H170.421V315.564ZM174.661 315.403L183.908 305.363L183.173 304.685L173.925 314.726L174.661 315.403ZM183.042 305.063L183.835 315.104L184.832 315.025L184.039 304.985L183.042 305.063Z" fill="url(#paint24_linear_205_603)"/>
<path fill-rule="evenodd" clip-rule="evenodd" d="M65.028 182.114L59.6291 182.114C55.2108 182.114 51.6291 178.533 51.6291 174.114L51.6291 167.263C51.6291 162.845 55.2108 159.263 59.6291 159.263L78.2515 159.263C82.6698 159.263 86.2515 162.845 86.2515 167.263L86.2515 174.114C86.2515 178.533 82.6698 182.114 78.2515 182.114L75.2242 182.114L68.2478 192.847L65.028 182.114Z" fill="#451F6D"/>
<path d="M65.028 182.114L65.5069 181.971L65.4 181.614L65.028 181.614L65.028 182.114ZM86.2515 167.263L85.7515 167.263L86.2515 167.263ZM86.2515 174.114L86.7515 174.114L86.2515 174.114ZM75.2242 182.114L75.2242 181.614L74.9529 181.614L74.805 181.842L75.2242 182.114ZM68.2478 192.847L67.7689 192.991L68.079 194.024L68.6671 193.12L68.2478 192.847ZM65.028 181.614L59.6291 181.614L59.6291 182.614L65.028 182.614L65.028 181.614ZM59.6291 181.614C55.4869 181.614 52.1291 178.256 52.1291 174.114L51.1291 174.114C51.1291 178.809 54.9346 182.614 59.6291 182.614L59.6291 181.614ZM52.1291 174.114L52.1291 167.263L51.1291 167.263L51.1291 174.114L52.1291 174.114ZM52.1291 167.263C52.1291 163.121 55.4869 159.763 59.6291 159.763L59.6291 158.763C54.9346 158.763 51.1291 162.569 51.1291 167.263L52.1291 167.263ZM59.6291 159.763L78.2515 159.763L78.2515 158.763L59.6291 158.763L59.6291 159.763ZM78.2515 159.763C82.3937 159.763 85.7515 163.121 85.7515 167.263L86.7515 167.263C86.7515 162.569 82.9459 158.763 78.2515 158.763L78.2515 159.763ZM85.7515 167.263L85.7515 174.114L86.7515 174.114L86.7515 167.263L85.7515 167.263ZM85.7515 174.114C85.7515 178.256 82.3937 181.614 78.2515 181.614L78.2515 182.614C82.9459 182.614 86.7515 178.809 86.7515 174.114L85.7515 174.114ZM78.2515 181.614L75.2242 181.614L75.2242 182.614L78.2515 182.614L78.2515 181.614ZM74.805 181.842L67.8286 192.575L68.6671 193.12L75.6435 182.387L74.805 181.842ZM68.7268 192.703L65.5069 181.971L64.5491 182.258L67.7689 192.991L68.7268 192.703Z" fill="url(#paint25_linear_205_603)"/>
<path fill-rule="evenodd" clip-rule="evenodd" d="M101.035 164.11L95.6365 164.11C91.2182 164.11 87.6364 160.529 87.6364 156.11L87.6364 149.26C87.6364 144.841 91.2182 141.26 95.6364 141.26L114.259 141.26C118.677 141.26 122.259 144.841 122.259 149.26L122.259 156.11C122.259 160.529 118.677 164.11 114.259 164.11L111.232 164.11L104.255 174.843L101.035 164.11Z" fill="#451F6D"/>
<path d="M101.035 164.11L101.514 163.967L101.407 163.61L101.035 163.61L101.035 164.11ZM122.259 149.26L121.759 149.26L122.259 149.26ZM122.259 156.11L122.759 156.11L122.259 156.11ZM114.259 164.11L114.259 164.61L114.259 164.11ZM111.232 164.11L111.232 163.61L110.96 163.61L110.812 163.838L111.232 164.11ZM104.255 174.843L103.776 174.987L104.086 176.021L104.674 175.116L104.255 174.843ZM101.035 163.61L95.6365 163.61L95.6365 164.61L101.035 164.61L101.035 163.61ZM95.6365 163.61C91.4943 163.61 88.1364 160.253 88.1364 156.11L87.1364 156.11C87.1364 160.805 90.942 164.61 95.6365 164.61L95.6365 163.61ZM88.1364 156.11L88.1364 149.26L87.1364 149.26L87.1364 156.11L88.1364 156.11ZM88.1364 149.26C88.1364 145.118 91.4943 141.76 95.6364 141.76L95.6364 140.76C90.942 140.76 87.1364 144.565 87.1364 149.26L88.1364 149.26ZM95.6364 141.76L114.259 141.76L114.259 140.76L95.6364 140.76L95.6364 141.76ZM114.259 141.76C118.401 141.76 121.759 145.118 121.759 149.26L122.759 149.26C122.759 144.565 118.953 140.76 114.259 140.76L114.259 141.76ZM121.759 149.26L121.759 156.11L122.759 156.11L122.759 149.26L121.759 149.26ZM121.759 156.11C121.759 160.253 118.401 163.61 114.259 163.61L114.259 164.61C118.953 164.61 122.759 160.805 122.759 156.11L121.759 156.11ZM114.259 163.61L111.232 163.61L111.232 164.61L114.259 164.61L114.259 163.61ZM110.812 163.838L103.836 174.571L104.674 175.116L111.651 164.383L110.812 163.838ZM104.734 174.7L101.514 163.967L100.556 164.254L103.776 174.987L104.734 174.7Z" fill="url(#paint26_linear_205_603)"/>
<path fill-rule="evenodd" clip-rule="evenodd" d="M137.043 182.807L131.644 182.807C127.225 182.807 123.644 179.225 123.644 174.807L123.644 167.956C123.644 163.538 127.225 159.956 131.644 159.956L150.266 159.956C154.685 159.956 158.266 163.538 158.266 167.956L158.266 174.807C158.266 179.225 154.685 182.807 150.266 182.807L147.239 182.807L140.263 193.54L137.043 182.807Z" fill="#451F6D"/>
<path d="M137.043 182.807L137.522 182.663L137.415 182.307L137.043 182.307L137.043 182.807ZM123.644 174.807L123.144 174.807L123.644 174.807ZM123.644 167.956L124.144 167.956L123.644 167.956ZM147.239 182.807L147.239 182.307L146.968 182.307L146.82 182.534L147.239 182.807ZM140.263 193.54L139.784 193.683L140.094 194.717L140.682 193.812L140.263 193.54ZM137.043 182.307L131.644 182.307L131.644 183.307L137.043 183.307L137.043 182.307ZM131.644 182.307C127.502 182.307 124.144 178.949 124.144 174.807L123.144 174.807C123.144 179.501 126.949 183.307 131.644 183.307L131.644 182.307ZM124.144 174.807L124.144 167.956L123.144 167.956L123.144 174.807L124.144 174.807ZM124.144 167.956C124.144 163.814 127.502 160.456 131.644 160.456L131.644 159.456C126.949 159.456 123.144 163.261 123.144 167.956L124.144 167.956ZM131.644 160.456L150.266 160.456L150.266 159.456L131.644 159.456L131.644 160.456ZM150.266 160.456C154.408 160.456 157.766 163.814 157.766 167.956L158.766 167.956C158.766 163.261 154.961 159.456 150.266 159.456L150.266 160.456ZM157.766 167.956L157.766 174.807L158.766 174.807L158.766 167.956L157.766 167.956ZM157.766 174.807C157.766 178.949 154.408 182.307 150.266 182.307L150.266 183.307C154.961 183.307 158.766 179.501 158.766 174.807L157.766 174.807ZM150.266 182.307L147.239 182.307L147.239 183.307L150.266 183.307L150.266 182.307ZM146.82 182.534L139.843 193.267L140.682 193.812L147.658 183.079L146.82 182.534ZM140.741 193.396L137.522 182.663L136.564 182.95L139.784 193.683L140.741 193.396Z" fill="url(#paint27_linear_205_603)"/>
<path fill-rule="evenodd" clip-rule="evenodd" d="M174.435 166.88L169.036 166.88C164.618 166.88 161.036 163.299 161.036 158.88L161.036 152.029C161.036 147.611 164.618 144.029 169.036 144.029L187.659 144.029C192.077 144.029 195.659 147.611 195.659 152.029L195.659 158.88C195.659 163.299 192.077 166.88 187.659 166.88L184.631 166.88L177.655 177.613L174.435 166.88Z" fill="#451F6D"/>
<path d="M174.435 166.88L174.914 166.737L174.807 166.38L174.435 166.38L174.435 166.88ZM195.659 152.029L196.159 152.029L195.659 152.029ZM195.659 158.88L195.159 158.88L195.659 158.88ZM184.631 166.88L184.631 166.38L184.36 166.38L184.212 166.608L184.631 166.88ZM177.655 177.613L177.176 177.757L177.486 178.79L178.074 177.886L177.655 177.613ZM174.435 166.38L169.036 166.38L169.036 167.38L174.435 167.38L174.435 166.38ZM169.036 166.38C164.894 166.38 161.536 163.022 161.536 158.88L160.536 158.88C160.536 163.575 164.342 167.38 169.036 167.38L169.036 166.38ZM161.536 158.88L161.536 152.029L160.536 152.029L160.536 158.88L161.536 158.88ZM161.536 152.029C161.536 147.887 164.894 144.529 169.036 144.529L169.036 143.529C164.342 143.529 160.536 147.335 160.536 152.029L161.536 152.029ZM169.036 144.529L187.659 144.529L187.659 143.529L169.036 143.529L169.036 144.529ZM187.659 144.529C191.801 144.529 195.159 147.887 195.159 152.029L196.159 152.029C196.159 147.335 192.353 143.529 187.659 143.529L187.659 144.529ZM195.159 152.029L195.159 158.88L196.159 158.88L196.159 152.029L195.159 152.029ZM195.159 158.88C195.159 163.022 191.801 166.38 187.659 166.38L187.659 167.38C192.353 167.38 196.159 163.575 196.159 158.88L195.159 158.88ZM187.659 166.38L184.631 166.38L184.631 167.38L187.659 167.38L187.659 166.38ZM184.212 166.608L177.236 177.341L178.074 177.886L185.05 167.153L184.212 166.608ZM178.134 177.469L174.914 166.737L173.956 167.024L177.176 177.757L178.134 177.469Z" fill="url(#paint28_linear_205_603)"/>
<path fill-rule="evenodd" clip-rule="evenodd" d="M211.827 182.807L206.428 182.807C202.01 182.807 198.428 179.225 198.428 174.807L198.428 167.956C198.428 163.538 202.01 159.956 206.428 159.956L225.051 159.956C229.469 159.956 233.051 163.538 233.051 167.956L233.051 174.807C233.051 179.225 229.469 182.807 225.051 182.807L222.023 182.807L215.047 193.54L211.827 182.807Z" fill="#451F6D"/>
<path d="M211.827 182.807L212.306 182.663L212.199 182.307L211.827 182.307L211.827 182.807ZM206.428 182.807L206.428 182.307L206.428 182.807ZM198.428 174.807L197.928 174.807L198.428 174.807ZM198.428 167.956L198.928 167.956L198.428 167.956ZM225.051 182.807L225.051 183.307L225.051 182.807ZM222.023 182.807L222.023 182.307L221.752 182.307L221.604 182.534L222.023 182.807ZM215.047 193.54L214.568 193.683L214.878 194.717L215.466 193.812L215.047 193.54ZM211.827 182.307L206.428 182.307L206.428 183.307L211.827 183.307L211.827 182.307ZM206.428 182.307C202.286 182.307 198.928 178.949 198.928 174.807L197.928 174.807C197.928 179.501 201.734 183.307 206.428 183.307L206.428 182.307ZM198.928 174.807L198.928 167.956L197.928 167.956L197.928 174.807L198.928 174.807ZM198.928 167.956C198.928 163.814 202.286 160.456 206.428 160.456L206.428 159.456C201.734 159.456 197.928 163.261 197.928 167.956L198.928 167.956ZM206.428 160.456L225.051 160.456L225.051 159.456L206.428 159.456L206.428 160.456ZM225.051 160.456C229.193 160.456 232.551 163.814 232.551 167.956L233.551 167.956C233.551 163.261 229.745 159.456 225.051 159.456L225.051 160.456ZM232.551 167.956L232.551 174.807L233.551 174.807L233.551 167.956L232.551 167.956ZM232.551 174.807C232.551 178.949 229.193 182.307 225.051 182.307L225.051 183.307C229.745 183.307 233.551 179.501 233.551 174.807L232.551 174.807ZM225.051 182.307L222.023 182.307L222.023 183.307L225.051 183.307L225.051 182.307ZM221.604 182.534L214.628 193.267L215.466 193.812L222.443 183.079L221.604 182.534ZM215.526 193.396L212.306 182.663L211.348 182.95L214.568 193.683L215.526 193.396Z" fill="url(#paint29_linear_205_603)"/>
<path fill-rule="evenodd" clip-rule="evenodd" d="M247.835 165.495L242.436 165.495C238.017 165.495 234.436 161.914 234.436 157.495L234.436 150.645C234.436 146.226 238.017 142.645 242.436 142.645L261.058 142.645C265.476 142.645 269.058 146.226 269.058 150.645L269.058 157.495C269.058 161.914 265.476 165.495 261.058 165.495L258.031 165.495L251.054 176.228L247.835 165.495Z" fill="#451F6D"/>
<path d="M247.835 165.495L248.314 165.352L248.207 164.995L247.835 164.995L247.835 165.495ZM242.436 165.495L242.436 164.995L242.436 165.495ZM234.436 157.495L233.936 157.495L234.436 157.495ZM234.436 150.645L234.936 150.645L234.436 150.645ZM269.058 150.645L269.558 150.645L269.058 150.645ZM269.058 157.495L268.558 157.495L269.058 157.495ZM258.031 165.495L258.031 164.995L257.76 164.995L257.612 165.223L258.031 165.495ZM251.054 176.228L250.576 176.372L250.886 177.405L251.474 176.501L251.054 176.228ZM247.835 164.995L242.436 164.995L242.436 165.995L247.835 165.995L247.835 164.995ZM242.436 164.995C238.294 164.995 234.936 161.638 234.936 157.495L233.936 157.495C233.936 162.19 237.741 165.995 242.436 165.995L242.436 164.995ZM234.936 157.495L234.936 150.645L233.936 150.645L233.936 157.495L234.936 157.495ZM234.936 150.645C234.936 146.502 238.294 143.145 242.436 143.145L242.436 142.145C237.741 142.145 233.936 145.95 233.936 150.645L234.936 150.645ZM242.436 143.145L261.058 143.145L261.058 142.145L242.436 142.145L242.436 143.145ZM261.058 143.145C265.2 143.145 268.558 146.502 268.558 150.645L269.558 150.645C269.558 145.95 265.753 142.145 261.058 142.145L261.058 143.145ZM268.558 150.645L268.558 157.495L269.558 157.495L269.558 150.645L268.558 150.645ZM268.558 157.495C268.558 161.638 265.2 164.995 261.058 164.995L261.058 165.995C265.753 165.995 269.558 162.19 269.558 157.495L268.558 157.495ZM261.058 164.995L258.031 164.995L258.031 165.995L261.058 165.995L261.058 164.995ZM257.612 165.223L250.635 175.956L251.474 176.501L258.45 165.768L257.612 165.223ZM251.533 176.085L248.314 165.352L247.356 165.639L250.576 176.372L251.533 176.085Z" fill="url(#paint30_linear_205_603)"/>
<path fill-rule="evenodd" clip-rule="evenodd" d="M285.227 182.114L279.828 182.114C275.41 182.114 271.828 178.533 271.828 174.114L271.828 167.263C271.828 162.845 275.41 159.263 279.828 159.263L298.45 159.263C302.869 159.263 306.45 162.845 306.45 167.263L306.45 174.114C306.45 178.533 302.869 182.114 298.45 182.114L295.423 182.114L288.447 192.847L285.227 182.114Z" fill="#451F6D"/>
<path d="M285.227 182.114L285.706 181.971L285.599 181.614L285.227 181.614L285.227 182.114ZM279.828 182.114L279.828 181.614L279.828 182.114ZM306.45 167.263L305.95 167.263L306.45 167.263ZM306.45 174.114L306.95 174.114L306.45 174.114ZM295.423 182.114L295.423 181.614L295.152 181.614L295.004 181.842L295.423 182.114ZM288.447 192.847L287.968 192.991L288.278 194.024L288.866 193.12L288.447 192.847ZM285.227 181.614L279.828 181.614L279.828 182.614L285.227 182.614L285.227 181.614ZM279.828 181.614C275.686 181.614 272.328 178.256 272.328 174.114L271.328 174.114C271.328 178.809 275.134 182.614 279.828 182.614L279.828 181.614ZM272.328 174.114L272.328 167.263L271.328 167.263L271.328 174.114L272.328 174.114ZM272.328 167.263C272.328 163.121 275.686 159.763 279.828 159.763L279.828 158.763C275.134 158.763 271.328 162.569 271.328 167.263L272.328 167.263ZM279.828 159.763L298.45 159.763L298.45 158.763L279.828 158.763L279.828 159.763ZM298.45 159.763C302.593 159.763 305.95 163.121 305.95 167.263L306.95 167.263C306.95 162.569 303.145 158.763 298.45 158.763L298.45 159.763ZM305.95 167.263L305.95 174.114L306.95 174.114L306.95 167.263L305.95 167.263ZM305.95 174.114C305.95 178.256 302.593 181.614 298.45 181.614L298.45 182.614C303.145 182.614 306.95 178.809 306.95 174.114L305.95 174.114ZM298.45 181.614L295.423 181.614L295.423 182.614L298.45 182.614L298.45 181.614ZM295.004 181.842L288.028 192.575L288.866 193.12L295.842 182.387L295.004 181.842ZM288.926 192.703L285.706 181.971L284.748 182.258L287.968 192.991L288.926 192.703Z" fill="url(#paint31_linear_205_603)"/>
<path d="M67.2656 169.908C66.9189 169.908 66.6256 169.788 66.3856 169.548C66.1456 169.308 66.0256 169.015 66.0256 168.668C66.0256 168.322 66.1456 168.028 66.3856 167.788C66.6256 167.548 66.9189 167.428 67.2656 167.428C67.5989 167.428 67.8789 167.548 68.1056 167.788C68.3456 168.028 68.4656 168.322 68.4656 168.668C68.4656 169.015 68.3456 169.308 68.1056 169.548C67.8789 169.788 67.5989 169.908 67.2656 169.908ZM68.1456 171.688V182.648H66.3256V171.688H68.1456ZM70.7856 203.188H68.4856V212.648H66.6656V203.188H65.2456V201.688H66.6656V200.908C66.6656 199.682 66.9789 198.788 67.6056 198.228C68.2456 197.655 69.2656 197.368 70.6656 197.368V198.888C69.8656 198.888 69.2989 199.048 68.9656 199.368C68.6456 199.675 68.4856 200.188 68.4856 200.908V201.688H70.7856V203.188Z" fill="#FBEDFF"/>
<path d="M138.955 176.748C138.955 177.095 138.935 177.462 138.895 177.848H130.135C130.201 178.928 130.568 179.775 131.235 180.388C131.915 180.988 132.735 181.288 133.695 181.288C134.481 181.288 135.135 181.108 135.655 180.748C136.188 180.375 136.561 179.882 136.775 179.268H138.735C138.441 180.322 137.855 181.182 136.975 181.848C136.095 182.502 135.001 182.828 133.695 182.828C132.655 182.828 131.721 182.595 130.895 182.128C130.081 181.662 129.441 181.002 128.975 180.148C128.508 179.282 128.275 178.282 128.275 177.148C128.275 176.015 128.501 175.022 128.955 174.168C129.408 173.315 130.041 172.662 130.855 172.208C131.681 171.742 132.628 171.508 133.695 171.508C134.735 171.508 135.655 171.735 136.455 172.188C137.255 172.642 137.868 173.268 138.295 174.068C138.735 174.855 138.955 175.748 138.955 176.748ZM137.075 176.368C137.075 175.675 136.921 175.082 136.615 174.588C136.308 174.082 135.888 173.702 135.355 173.448C134.835 173.182 134.255 173.048 133.615 173.048C132.695 173.048 131.908 173.342 131.255 173.928C130.615 174.515 130.248 175.328 130.155 176.368H137.075ZM143.177 167.848V182.648H141.357V167.848H143.177ZM150.159 182.828C149.319 182.828 148.565 182.688 147.899 182.408C147.232 182.115 146.705 181.715 146.319 181.208C145.932 180.688 145.719 180.095 145.679 179.428H147.559C147.612 179.975 147.865 180.422 148.319 180.768C148.785 181.115 149.392 181.288 150.139 181.288C150.832 181.288 151.379 181.135 151.779 180.828C152.179 180.522 152.379 180.135 152.379 179.668C152.379 179.188 152.165 178.835 151.739 178.608C151.312 178.368 150.652 178.135 149.759 177.908C148.945 177.695 148.279 177.482 147.759 177.268C147.252 177.042 146.812 176.715 146.439 176.288C146.079 175.848 145.899 175.275 145.899 174.568C145.899 174.008 146.065 173.495 146.399 173.028C146.732 172.562 147.205 172.195 147.819 171.928C148.432 171.648 149.132 171.508 149.919 171.508C151.132 171.508 152.112 171.815 152.859 172.428C153.605 173.042 154.005 173.882 154.059 174.948H152.239C152.199 174.375 151.965 173.915 151.539 173.568C151.125 173.222 150.565 173.048 149.859 173.048C149.205 173.048 148.685 173.188 148.299 173.468C147.912 173.748 147.719 174.115 147.719 174.568C147.719 174.928 147.832 175.228 148.059 175.468C148.299 175.695 148.592 175.882 148.939 176.028C149.299 176.162 149.792 176.315 150.419 176.488C151.205 176.702 151.845 176.915 152.339 177.128C152.832 177.328 153.252 177.635 153.599 178.048C153.959 178.462 154.145 179.002 154.159 179.668C154.159 180.268 153.992 180.808 153.659 181.288C153.325 181.768 152.852 182.148 152.239 182.428C151.639 182.695 150.945 182.828 150.159 182.828ZM146.64 206.748C146.64 207.095 146.62 207.462 146.58 207.848H137.82C137.887 208.928 138.253 209.775 138.92 210.388C139.6 210.988 140.42 211.288 141.38 211.288C142.167 211.288 142.82 211.108 143.34 210.748C143.873 210.375 144.247 209.882 144.46 209.268H146.42C146.127 210.322 145.54 211.182 144.66 211.848C143.78 212.502 142.687 212.828 141.38 212.828C140.34 212.828 139.407 212.595 138.58 212.128C137.767 211.662 137.127 211.002 136.66 210.148C136.193 209.282 135.96 208.282 135.96 207.148C135.96 206.015 136.187 205.022 136.64 204.168C137.093 203.315 137.727 202.662 138.54 202.208C139.367 201.742 140.313 201.508 141.38 201.508C142.42 201.508 143.34 201.735 144.14 202.188C144.94 202.642 145.553 203.268 145.98 204.068C146.42 204.855 146.64 205.748 146.64 206.748ZM144.76 206.368C144.76 205.675 144.607 205.082 144.3 204.588C143.993 204.082 143.573 203.702 143.04 203.448C142.52 203.182 141.94 203.048 141.3 203.048C140.38 203.048 139.593 203.342 138.94 203.928C138.3 204.515 137.933 205.328 137.84 206.368H144.76Z" fill="#FBEDFF"/>
<path d="M35.5855 243.493L35.3655 253.493H33.8455L33.6255 243.493H35.5855ZM34.6855 257.553C34.3388 257.553 34.0455 257.433 33.8055 257.193C33.5655 256.953 33.4455 256.659 33.4455 256.313C33.4455 255.966 33.5655 255.673 33.8055 255.433C34.0455 255.193 34.3388 255.073 34.6855 255.073C35.0188 255.073 35.2988 255.193 35.5255 255.433C35.7655 255.673 35.8855 255.966 35.8855 256.313C35.8855 256.659 35.7655 256.953 35.5255 257.193C35.2988 257.433 35.0188 257.553 34.6855 257.553ZM39.8575 277.193V278.733H29.4575V277.193H39.8575ZM39.8575 281.493V283.033H29.4575V281.493H39.8575Z" fill="#FBEDFF"/>
<path d="M218.795 173.188H216.495V182.648H214.675V173.188H213.255V171.688H214.675V170.908C214.675 169.682 214.988 168.788 215.615 168.228C216.255 167.655 217.275 167.368 218.675 167.368V168.888C217.875 168.888 217.308 169.048 216.975 169.368C216.655 169.675 216.495 170.188 216.495 170.908V171.688H218.795V173.188ZM216.009 212.828C214.983 212.828 214.049 212.595 213.209 212.128C212.383 211.662 211.729 211.002 211.249 210.148C210.783 209.282 210.549 208.282 210.549 207.148C210.549 206.028 210.789 205.042 211.269 204.188C211.763 203.322 212.429 202.662 213.269 202.208C214.109 201.742 215.049 201.508 216.089 201.508C217.129 201.508 218.069 201.742 218.909 202.208C219.749 202.662 220.409 203.315 220.889 204.168C221.383 205.022 221.629 206.015 221.629 207.148C221.629 208.282 221.376 209.282 220.869 210.148C220.376 211.002 219.703 211.662 218.849 212.128C217.996 212.595 217.049 212.828 216.009 212.828ZM216.009 211.228C216.663 211.228 217.276 211.075 217.849 210.768C218.423 210.462 218.883 210.002 219.229 209.388C219.589 208.775 219.769 208.028 219.769 207.148C219.769 206.268 219.596 205.522 219.249 204.908C218.903 204.295 218.449 203.842 217.889 203.548C217.329 203.242 216.723 203.088 216.069 203.088C215.403 203.088 214.789 203.242 214.229 203.548C213.683 203.842 213.243 204.295 212.909 204.908C212.576 205.522 212.409 206.268 212.409 207.148C212.409 208.042 212.569 208.795 212.889 209.408C213.223 210.022 213.663 210.482 214.209 210.788C214.756 211.082 215.356 211.228 216.009 211.228ZM215.715 233.468C216.035 232.842 216.489 232.355 217.075 232.008C217.675 231.662 218.402 231.488 219.255 231.488V233.368H218.775C216.735 233.368 215.715 234.475 215.715 236.688V242.648H213.895V231.688H215.715V233.468Z" fill="#FBEDFF"/>
<path d="M294.679 172.408V173.948H284.279V172.408H294.679ZM294.679 176.708V178.248H284.279V176.708H294.679Z" fill="#FBEDFF"/>
<path d="M251.71 156.185C251.364 156.185 251.07 156.065 250.83 155.825C250.59 155.585 250.47 155.291 250.47 154.945C250.47 154.598 250.59 154.305 250.83 154.065C251.07 153.825 251.364 153.705 251.71 153.705C252.044 153.705 252.324 153.825 252.55 154.065C252.79 154.305 252.91 154.598 252.91 154.945C252.91 155.291 252.79 155.585 252.55 155.825C252.324 156.065 252.044 156.185 251.71 156.185ZM253.03 162.125L250.79 167.505H249.57L251.03 162.125H253.03Z" fill="#FBEDFF"/>
<path d="M175.828 159.234C177.188 158.981 177.868 158.281 177.868 157.134C177.868 156.628 177.801 155.761 177.668 154.534C177.535 153.228 177.468 152.281 177.468 151.694C177.468 150.734 177.735 150.001 178.268 149.494C178.815 148.988 179.541 148.734 180.448 148.734H181.608V150.314H180.788C180.268 150.314 179.881 150.434 179.628 150.674C179.375 150.901 179.248 151.281 179.248 151.814C179.248 152.201 179.275 152.681 179.328 153.254C179.381 153.814 179.415 154.194 179.428 154.394C179.561 155.674 179.628 156.608 179.628 157.194C179.628 157.901 179.448 158.494 179.088 158.974C178.741 159.441 178.201 159.754 177.468 159.914V159.954C178.201 160.114 178.741 160.434 179.088 160.914C179.448 161.394 179.628 161.988 179.628 162.694C179.628 163.281 179.561 164.214 179.428 165.494C179.415 165.694 179.381 166.081 179.328 166.654C179.275 167.214 179.248 167.688 179.248 168.074C179.248 168.608 179.375 168.988 179.628 169.214C179.881 169.454 180.268 169.574 180.788 169.574H181.608V171.154H180.448C179.541 171.154 178.815 170.901 178.268 170.394C177.735 169.888 177.468 169.154 177.468 168.194C177.468 167.608 177.535 166.661 177.668 165.354C177.801 164.128 177.868 163.261 177.868 162.754C177.868 161.608 177.188 160.908 175.828 160.654V159.234ZM180.868 190.654C179.508 190.908 178.828 191.608 178.828 192.754C178.828 193.261 178.895 194.128 179.028 195.354C179.161 196.661 179.228 197.608 179.228 198.194C179.228 199.154 178.955 199.888 178.408 200.394C177.875 200.901 177.155 201.154 176.248 201.154H175.088V199.574H175.908C176.428 199.574 176.815 199.454 177.068 199.214C177.321 198.988 177.448 198.608 177.448 198.074C177.448 197.688 177.421 197.214 177.368 196.654C177.315 196.081 177.281 195.694 177.268 195.494C177.135 194.214 177.068 193.281 177.068 192.694C177.068 191.988 177.241 191.394 177.588 190.914C177.948 190.434 178.495 190.114 179.228 189.954V189.914C178.495 189.754 177.948 189.441 177.588 188.974C177.241 188.494 177.068 187.901 177.068 187.194C177.068 186.608 177.135 185.674 177.268 184.394C177.281 184.194 177.315 183.814 177.368 183.254C177.421 182.681 177.448 182.201 177.448 181.814C177.448 181.281 177.321 180.901 177.068 180.674C176.815 180.434 176.428 180.314 175.908 180.314H175.088V178.734H176.248C177.155 178.734 177.875 178.988 178.408 179.494C178.955 180.001 179.228 180.734 179.228 181.694C179.228 182.281 179.161 183.228 179.028 184.534C178.895 185.761 178.828 186.628 178.828 187.134C178.828 188.281 179.508 188.981 180.868 189.234V190.654Z" fill="#FBEDFF"/>
<path d="M106.633 145.965V147.465H104.733V166.845H106.633V168.365H103.033V145.965H106.633ZM106.173 198.365H102.573V196.845H104.473V177.465H102.573V175.965H106.173V198.365Z" fill="#FBEDFF"/>
<path d="M175.237 336.422L170.417 331.822L175.237 327.242H177.537L172.697 331.822L177.537 336.422H175.237ZM188.171 320.302L182.691 342.542H180.891L186.351 320.302H188.171ZM175.529 357.242H177.829L182.669 361.822L177.829 366.422H175.529L180.369 361.822L175.529 357.242Z" fill="#FBEDFF"/>
<defs>
<linearGradient id="paint0_linear_205_603" x1="58.5536" y1="247.897" x2="306.45" y2="247.897" gradientUnits="userSpaceOnUse">
<stop stop-color="#D37895"/>
<stop offset="1" stop-color="#5210E3"/>
</linearGradient>
<linearGradient id="paint1_linear_205_603" x1="329.197" y1="181.422" x2="467.741" y2="319.019" gradientUnits="userSpaceOnUse">
<stop stop-color="#C18A99"/>
<stop offset="1" stop-color="#A05091"/>
</linearGradient>
<linearGradient id="paint2_linear_205_603" x1="387.121" y1="220.199" x2="405.817" y2="286.674" gradientUnits="userSpaceOnUse">
<stop stop-color="#D37895"/>
<stop offset="0.691508" stop-color="#5210E3"/>
</linearGradient>
<linearGradient id="paint3_linear_205_603" x1="373.272" y1="241.656" x2="411.238" y2="205.562" gradientUnits="userSpaceOnUse">
<stop stop-color="#FBD3E5"/>
<stop offset="1" stop-color="#D8CDFF"/>
</linearGradient>
<linearGradient id="paint4_linear_205_603" x1="397.745" y1="230.236" x2="405.162" y2="226.735" gradientUnits="userSpaceOnUse">
<stop stop-color="#FBD3E5"/>
<stop offset="1" stop-color="#D8CDFF"/>
</linearGradient>
<linearGradient id="paint5_linear_205_603" x1="404.265" y1="279.456" x2="417.813" y2="277.245" gradientUnits="userSpaceOnUse">
<stop stop-color="#FBD3E5"/>
<stop offset="1" stop-color="#D8CDFF"/>
</linearGradient>
<linearGradient id="paint6_linear_205_603" x1="71.7101" y1="351.845" x2="176.496" y2="316.093" gradientUnits="userSpaceOnUse">
<stop stop-color="#BE8A9D"/>
<stop offset="1" stop-color="#B35A80"/>
</linearGradient>
<linearGradient id="paint7_linear_205_603" x1="78.2883" y1="282.899" x2="139.84" y2="251.227" gradientUnits="userSpaceOnUse">
<stop stop-color="#BE8A9D"/>
<stop offset="1" stop-color="#B35A80"/>
</linearGradient>
<linearGradient id="paint8_linear_205_603" x1="97.6769" y1="293.549" x2="158.332" y2="261.732" gradientUnits="userSpaceOnUse">
<stop stop-color="#BE8A9D"/>
<stop offset="1" stop-color="#B35A80"/>
</linearGradient>
<linearGradient id="paint9_linear_205_603" x1="197.251" y1="349.008" x2="306.891" y2="308.74" gradientUnits="userSpaceOnUse">
<stop stop-color="#BE8A9D"/>
<stop offset="1" stop-color="#B35A80"/>
</linearGradient>
<linearGradient id="paint10_linear_205_603" x1="250.708" y1="261.517" x2="272.579" y2="253.716" gradientUnits="userSpaceOnUse">
<stop stop-color="#BE8A9D"/>
<stop offset="1" stop-color="#B35A80"/>
</linearGradient>
<linearGradient id="paint11_linear_205_603" x1="199.467" y1="268.707" x2="256.881" y2="218.388" gradientUnits="userSpaceOnUse">
<stop stop-color="#BE8A9D"/>
<stop offset="1" stop-color="#B35A80"/>
</linearGradient>
<linearGradient id="paint12_linear_205_603" x1="214.701" y1="288.026" x2="273.544" y2="248.373" gradientUnits="userSpaceOnUse">
<stop stop-color="#BE8A9D"/>
<stop offset="1" stop-color="#B35A80"/>
</linearGradient>
<linearGradient id="paint13_linear_205_603" x1="1.08038" y1="5.53959" x2="361.5" y2="5.53959" gradientUnits="userSpaceOnUse">
<stop stop-color="#D6997D"/>
<stop offset="1" stop-color="#3F0EA4"/>
</linearGradient>
<linearGradient id="paint14_linear_205_603" x1="131.953" y1="128.103" x2="224.049" y2="128.103" gradientUnits="userSpaceOnUse">
<stop stop-color="#D37895"/>
<stop offset="1" stop-color="#5210E3"/>
</linearGradient>
<linearGradient id="paint15_linear_205_603" x1="147.88" y1="125.333" x2="208.815" y2="125.333" gradientUnits="userSpaceOnUse">
<stop stop-color="#D37895"/>
<stop offset="1" stop-color="#5210E3"/>
</linearGradient>
<linearGradient id="paint16_linear_205_603" x1="147.88" y1="136.907" x2="184.367" y2="94.8001" gradientUnits="userSpaceOnUse">
<stop stop-color="#BE8A9D"/>
<stop offset="1" stop-color="#B35A80"/>
</linearGradient>
<linearGradient id="paint17_linear_205_603" x1="0" y1="68.3029" x2="362.681" y2="68.3029" gradientUnits="userSpaceOnUse">
<stop stop-color="#D37895"/>
<stop offset="1" stop-color="#5210E3"/>
</linearGradient>
<linearGradient id="paint18_linear_205_603" x1="6.62" y1="66.8213" x2="410.095" y2="66.8213" gradientUnits="userSpaceOnUse">
<stop stop-color="#19096B"/>
<stop offset="1" stop-color="#26047E"/>
<stop offset="1" stop-color="#26067E"/>
</linearGradient>
<linearGradient id="paint19_linear_205_603" x1="55.7839" y1="99.1006" x2="142.482" y2="-52.538" gradientUnits="userSpaceOnUse">
<stop stop-color="#BE8A9D"/>
<stop offset="1" stop-color="#B35A80"/>
</linearGradient>
<linearGradient id="paint20_linear_205_603" x1="55.7839" y1="99.1006" x2="142.482" y2="-52.538" gradientUnits="userSpaceOnUse">
<stop stop-color="#FBD3E5"/>
<stop offset="1" stop-color="#D8CDFF"/>
</linearGradient>
<linearGradient id="paint21_linear_205_603" x1="64.4395" y1="72.0147" x2="337.71" y2="72.0147" gradientUnits="userSpaceOnUse">
<stop stop-color="#531B9B"/>
<stop offset="1" stop-color="#26047E"/>
<stop offset="1" stop-color="#310597"/>
</linearGradient>
<linearGradient id="paint22_linear_205_603" x1="1.08039" y1="10.9215" x2="1.09093" y2="8.61769" gradientUnits="userSpaceOnUse">
<stop stop-color="#FBD3E5"/>
<stop offset="1" stop-color="#D8CDFF"/>
</linearGradient>
<linearGradient id="paint23_linear_205_603" x1="17.0066" y1="252.651" x2="50.3814" y2="230.302" gradientUnits="userSpaceOnUse">
<stop stop-color="#BE8A9D"/>
<stop offset="1" stop-color="#B35A80"/>
</linearGradient>
<linearGradient id="paint24_linear_205_603" x1="162.421" y1="332.923" x2="196.014" y2="310.665" gradientUnits="userSpaceOnUse">
<stop stop-color="#BE8A9D"/>
<stop offset="1" stop-color="#B35A80"/>
</linearGradient>
<linearGradient id="paint25_linear_205_603" x1="86.2515" y1="164.361" x2="52.2354" y2="186.435" gradientUnits="userSpaceOnUse">
<stop stop-color="#BE8A9D"/>
<stop offset="1" stop-color="#B35A80"/>
</linearGradient>
<linearGradient id="paint26_linear_205_603" x1="122.259" y1="146.357" x2="88.2428" y2="168.431" gradientUnits="userSpaceOnUse">
<stop stop-color="#BE8A9D"/>
<stop offset="1" stop-color="#B35A80"/>
</linearGradient>
<linearGradient id="paint27_linear_205_603" x1="158.266" y1="165.053" x2="124.25" y2="187.127" gradientUnits="userSpaceOnUse">
<stop stop-color="#BE8A9D"/>
<stop offset="1" stop-color="#B35A80"/>
</linearGradient>
<linearGradient id="paint28_linear_205_603" x1="195.659" y1="149.127" x2="161.642" y2="171.201" gradientUnits="userSpaceOnUse">
<stop stop-color="#BE8A9D"/>
<stop offset="1" stop-color="#B35A80"/>
</linearGradient>
<linearGradient id="paint29_linear_205_603" x1="233.051" y1="165.053" x2="199.035" y2="187.127" gradientUnits="userSpaceOnUse">
<stop stop-color="#BE8A9D"/>
<stop offset="1" stop-color="#B35A80"/>
</linearGradient>
<linearGradient id="paint30_linear_205_603" x1="269.058" y1="147.742" x2="235.042" y2="169.816" gradientUnits="userSpaceOnUse">
<stop stop-color="#BE8A9D"/>
<stop offset="1" stop-color="#B35A80"/>
</linearGradient>
<linearGradient id="paint31_linear_205_603" x1="306.45" y1="164.361" x2="272.434" y2="186.435" gradientUnits="userSpaceOnUse">
<stop stop-color="#BE8A9D"/>
<stop offset="1" stop-color="#B35A80"/>
</linearGradient>
</defs>
</svg>
